# xmcd
#
# Track frame offsets: 
#        150
#        15479
#        30472
#        43834
#        58896
#        75491
#        90595
#        106071
#        119094
#        132708
#        143754
#        157410
#
# Disc length: 2367 seconds
#
# Revision: 0
# Processed by: cddbd v1.5.2PL0 Copyright (c) Steve Scherf et al.
# Submitted via: ExactAudioCopy v1.0b1
#
DISCID=a4093d0c
DTITLE=Queen Of Hearts - Queen Of Hearts
DYEAR=2002
DGENRE=Country
TTITLE0=Hello, Baby...Goodbye
TTITLE1=Treat Me Right
TTITLE2=I Could Write A Book
TTITLE3=Look With My Heart
TTITLE4=Devotion
TTITLE5=Second Chance
TTITLE6=By the Light of The Radio
TTITLE7=Away From Here
TTITLE8=Give It A Try
TTITLE9=Life Is Good
TTITLE10=I Am Jerusalem
TTITLE11=By My Side
EXTD=
EXTT0=
EXTT1=
EXTT2=
EXTT3=
EXTT4=
EXTT5=
EXTT6=
EXTT7=
EXTT8=
EXTT9=
EXTT10=
EXTT11=
PLAYORDER=
